<svg width="66" height="43" viewBox="0 0 66 43" fill="none" xmlns="http://www.w3.org/2000/svg">
<g clip-path="url(#clip0_382_119)">
<path d="M9.26567 0.289299L56.2559 0.234863C68.755 1.32776 69.9735 18.6654 57.7465 21.4793C41.3301 21.8561 24.7671 21.8561 8.34864 21.4793C-3.5664 18.7743 -2.83571 1.95795 9.26567 0.289299ZM14.4726 12.778C13.4321 16.511 8.14556 16.0002 6.9417 12.5477C5.52429 8.4839 9.57343 4.9498 13.3002 7.29051C14.0455 7.75949 14.5564 8.64511 15.4943 8.7142C16.8154 8.80842 17.6696 7.44754 17.1755 6.2374C16.7945 5.30572 14.4831 3.9239 13.5242 3.62032C8.07647 1.89933 2.75646 5.61767 2.96583 11.3878C3.27779 20.02 16.336 21.3913 18.0067 13.2575C18.3584 11.5448 18.4757 10.4394 16.4365 10.2656C15.5173 10.1881 12.3768 10.1463 11.6943 10.5503C10.6873 11.1449 11.3007 12.778 12.0419 12.778H14.4726ZM28.2698 12.3069L24.9535 3.94902C22.9834 1.96423 22.4809 4.18561 21.9554 5.76423C20.9609 8.75608 19.5539 12.8701 18.9091 15.8787C18.7374 16.6848 18.5846 17.1977 19.1038 17.941C19.8826 19.0569 21.5031 18.8559 22.2192 17.7777L24.1935 10.8979L27.0325 17.6939C27.5496 18.9145 28.8456 19.0339 29.5847 17.9326L32.3441 11.0549C32.5849 11.0779 32.5828 11.2936 32.6477 11.4548C33.2423 12.9748 33.8432 17.0135 34.6932 18.0268C35.5432 19.0402 37.0632 18.8748 37.7039 17.7442C38.1624 16.9381 37.9572 16.6848 37.7835 15.8787C37.126 12.8178 35.7212 8.67233 34.6974 5.64699C34.1865 4.13536 33.7322 2.07938 31.806 3.86109L28.2678 12.3069H28.2698ZM48.7773 16.0944C49.1897 16.9276 49.307 18.0457 50.2303 18.479C51.564 19.103 52.9039 18.1273 52.816 16.6932L47.4792 4.1542C46.7192 2.83938 45.5509 2.88126 44.8244 4.18142C43.8006 6.01128 42.7371 8.93194 41.8787 10.9502C41.2966 12.3195 39.919 14.9596 39.6322 16.2242C39.2281 17.9975 40.5345 19.2642 42.176 18.4518C43.1453 17.9724 43.34 16.1195 43.5787 16.063L48.7794 16.0965L48.7773 16.0944Z" fill="white"/>
<path d="M8.79247 36.3168C9.15467 36.6958 9.4771 40.5104 9.69065 40.5104L10.5721 36.298C10.9217 36.2205 11.3823 36.2436 11.5687 36.5953C11.8032 37.0412 12.157 40.5104 12.3559 40.5104C12.7013 39.5055 12.7055 37.2925 13.1452 36.4404C13.4383 35.8709 14.3281 36.0886 14.2486 36.9093C14.1439 38.0043 13.4823 40.6528 13.1431 41.7646C13.0049 42.2168 12.8751 42.8407 12.2324 42.6795C11.3593 42.4638 11.51 39.3171 10.9469 38.6282C10.7605 39.1977 10.3941 44.1471 9.07511 42.378L7.73936 36.8047C7.66608 36.2017 8.40933 35.9128 8.79456 36.3147L8.79247 36.3168Z" fill="white"/>
<path d="M30.1477 32.1276C29.6097 32.561 29.1595 32.5526 29.0674 31.8031C28.9355 30.7395 28.9041 27.6765 29.0444 26.638C29.0674 26.4663 29.0674 26.2988 29.193 26.1607C30.4053 24.9568 31.2511 28.6019 31.6384 28.5998C32.3419 27.9549 32.7564 25.6414 33.9624 25.9304C34.0629 25.9639 34.2262 26.2905 34.2262 26.3303V31.9706C34.2262 32.6782 32.9721 32.3077 32.9721 31.9706V28.6019L32.1891 29.9334L31.6426 30.3166C30.824 30.3815 30.7989 28.7819 30.1498 28.4449V32.1276H30.1477Z" fill="white"/>
<path d="M26.0735 36.5138C27.1475 35.758 29.706 36.0386 30.3383 37.2655C30.8031 38.1699 30.8135 41.0257 30.154 41.8443C30.02 42.0097 29.2559 42.5457 29.1323 42.5457H26.3101L26.0756 42.3112V36.5138H26.0735ZM27.3276 41.4486C28.5419 41.4612 29.2433 41.7124 29.3731 40.2803C29.5322 38.5237 29.5783 36.9472 27.3276 37.2173V41.4465V41.4486Z" fill="white"/>
<path d="M16.8237 29.6989V26.3302C16.8237 26.2883 16.9849 25.9659 17.0854 25.9303L17.9208 26.1732V32.1275C17.9208 32.4437 17.144 32.4437 16.8153 32.1359C16.1516 31.5162 15.4859 29.121 14.6296 28.4469V32.1296C14.0915 32.563 13.6413 32.5546 13.5492 31.8051C13.4173 30.7332 13.3859 27.689 13.5262 26.64C13.6183 25.9512 14.1229 25.7167 14.7112 26.0978L16.8258 29.7031L16.8237 29.6989Z" fill="white"/>
<path d="M20.4289 36.5137L20.6885 36.3022C21.7793 36.2645 22.755 35.9882 23.8123 36.4236C25.2108 37.0015 25.2799 39.3715 23.8688 39.9703C24.0593 40.5084 25.4872 42.8009 24.1096 42.6942C23.0837 42.6146 23.2763 39.5997 21.6851 40.1943C21.5909 40.8601 22.0682 42.8156 20.9879 42.7088C20.8246 42.7193 20.431 42.3885 20.431 42.311V36.5137H20.4289ZM21.683 39.2564C24.3273 39.5579 24.3378 36.8717 21.683 37.2171V39.2564Z" fill="white"/>
<path d="M6.16276 30.0127H5.22061L5.36717 29.1397C7.21169 28.8026 7.57389 29.125 7.18866 30.9611C6.74271 33.0778 3.19813 32.9292 2.8799 30.8648C2.76684 30.1321 2.78987 27.6029 3.0432 26.9748C3.58337 25.6328 5.99945 25.5155 6.86204 26.5728C7.18237 26.9664 7.55086 27.9044 6.83692 28.1096C6.12298 28.3148 6.18788 27.6029 5.85709 27.2637C5.41114 26.8052 4.34337 26.8303 4.15494 27.4564C4.0335 27.8542 4.07119 30.7622 4.27009 31.0407C4.92122 31.9535 6.3826 31.07 6.16276 30.0106V30.0127Z" fill="white"/>
<path d="M35.6352 26.1729C35.7127 25.9216 36.2361 25.8735 36.4769 25.9551C37.3311 26.2482 36.5816 30.1508 36.9668 30.9506C37.352 31.7504 38.7694 31.3149 38.7694 30.7161V26.3299C38.7694 26.2524 39.163 25.9216 39.3263 25.93C39.5273 25.8462 40.0235 26.2147 40.0235 26.3299V30.8731C40.0235 32.2466 37.2536 33.128 36.1021 31.8153C36.0184 31.7211 35.6331 31.0762 35.6331 31.0302C35.6331 30.0901 35.4447 26.78 35.6331 26.1729H35.6352Z" fill="white"/>
<path d="M23.2513 27.0357V28.6038C26.6158 28.1976 26.6158 30.105 23.2513 29.6988V31.267H25.682C26.1426 31.267 26.0338 32.364 25.9165 32.364H22.3887C22.3615 32.364 21.9972 31.9997 21.9972 31.9725V26.3322C21.9972 26.305 22.3615 25.9407 22.3887 25.9407H25.6799C26.0003 25.9407 26.0003 27.0378 25.6799 27.0378H23.2492L23.2513 27.0357Z" fill="white"/>
<path d="M35.6144 38.1363C34.8439 38.6262 34.4524 37.1858 33.7971 37.0853C33.3595 37.0183 32.7607 37.4328 32.8068 37.9144C32.9031 38.9465 36.2739 38.643 35.9431 41.0423C35.6123 43.4416 30.8848 43.203 31.7055 40.5733C32.566 40.1985 32.5702 41.1198 32.8968 41.4422C33.5563 42.0912 35.1056 41.5783 34.6157 40.5105C34.2305 39.6709 31.559 39.8154 31.559 37.9227C31.559 36.0301 34.4692 35.4731 35.4553 36.8508C35.6563 37.1313 35.9557 37.9206 35.6165 38.1384L35.6144 38.1363Z" fill="white"/>
<path d="M42.0397 30.35C42.3035 31.3989 43.1515 31.7444 44.1041 31.1917C44.9457 29.544 42.2407 29.7073 41.5163 28.7567C40.1408 26.9457 42.4857 25.2624 44.3742 26.058C45.4922 26.5291 45.6513 28.3317 44.5165 27.9611C44.2988 27.89 43.566 26.0664 42.5296 27.1111C41.4933 28.1559 44.0161 28.5955 44.5228 28.8845C46.7379 30.1469 44.9834 33.3335 42.224 32.2783C41.4912 31.9977 40.6537 31.1268 41.2755 30.4024L42.0397 30.35Z" fill="white"/>
<path d="M9.61317 27.0358V28.6019H11.8869C12.1591 28.6019 12.27 29.3975 11.8094 29.6194C11.3488 29.8413 9.71367 29.5964 9.61317 29.6968V31.265H12.2009C12.5213 31.265 12.5213 32.3621 12.2009 32.3621H8.75268L8.51819 32.1276V26.0957C8.67312 26.146 8.85736 25.9387 8.9097 25.9387H12.046C12.5024 25.9387 12.5024 27.0358 12.046 27.0358H9.61527H9.61317Z" fill="white"/>
<path d="M18.4295 42.506C18.2013 42.2757 18.1552 41.3293 17.9815 41.2812L15.8983 41.3063L15.5319 42.506C14.5583 42.8996 14.5311 42.4515 14.7007 41.5973C14.8996 40.5945 15.758 37.6884 16.1893 36.8175C16.5724 36.0428 17.1419 35.8272 17.7344 36.5432L19.4596 41.8779L19.1769 42.6316C18.9739 42.7551 18.5823 42.6567 18.4316 42.5039L18.4295 42.506ZM17.1356 38.0025C16.7525 37.9543 16.8865 38.0025 16.8069 38.2202C16.5661 38.8818 16.4887 39.6921 16.1956 40.3495H17.7616L17.1335 38.0004L17.1356 38.0025Z" fill="white"/>
<path d="M5.98481 41.3123L3.96233 41.3625L3.23373 42.6857C2.70404 42.7213 2.52398 42.3591 2.5847 41.8817C2.65798 41.2997 3.92674 37.2799 4.20101 36.7439C4.57368 36.0132 5.28971 35.8876 5.72938 36.6329C6.03296 37.1459 7.29544 41.0861 7.38756 41.7226C7.46294 42.2418 7.37919 42.7066 6.74272 42.6836C6.23396 42.4072 6.17115 41.7959 5.9869 41.3102L5.98481 41.3123ZM5.6917 40.3513L4.91076 37.8472L4.28057 40.3513H5.6917Z" fill="white"/>
<path d="M52.4495 30.2095C52.5479 30.1132 52.6923 30.0797 52.8242 30.0567C53.6847 30.0964 53.5779 30.9171 53.1927 31.5013C52.1563 33.0778 49.3571 32.7554 49.1142 30.7203C49.0242 29.9666 49.0179 27.2763 49.3613 26.7298C50.1548 25.4611 52.5102 25.6013 53.2597 26.8931C53.8627 27.9337 52.8807 28.545 52.416 28.0551C52.0035 27.6217 52.3678 27.0208 51.3335 26.9643C49.9391 26.8868 50.1025 29.2967 50.2134 30.2514C50.3118 31.1014 51.032 31.7148 51.8318 31.2354C52.2778 30.9674 52.2192 30.4377 52.4515 30.2095H52.4495Z" fill="white"/>
<path d="M20.586 32.1274C20.4688 32.5022 19.5246 32.4812 19.3633 31.939C19.2021 31.3967 19.2503 27.5234 19.3236 26.7906C19.4513 25.4988 20.586 25.9385 20.586 26.173V32.1274Z" fill="white"/>
<path d="M46.6082 26.1731C46.7254 25.7984 47.6696 25.8193 47.8309 26.3616C47.9921 26.9038 47.9439 30.7771 47.8706 31.5099C47.7429 32.8017 46.6082 32.362 46.6082 32.1275V26.1731Z" fill="white"/>
<path d="M28.2697 12.3066L31.808 3.86077C33.7342 2.07907 34.1864 4.13505 34.6994 5.64667C35.7232 8.67202 37.128 12.8175 37.7854 15.8784C37.9592 16.6866 38.1623 16.9378 37.7059 17.7439C37.0631 18.8744 35.5327 19.0252 34.6952 18.0265C33.8577 17.0278 33.2443 12.9724 32.6497 11.4545C32.5869 11.2912 32.5869 11.0755 32.3461 11.0546L29.5867 17.9323C28.8476 19.0336 27.5516 18.9142 27.0345 17.6936L24.1955 10.8976L22.2211 17.7774C21.503 18.8556 19.8846 19.0566 19.1058 17.9407C18.5865 17.1974 18.7394 16.6845 18.9111 15.8784C19.5559 12.8698 20.9629 8.75367 21.9573 5.76392C22.4829 4.18529 22.9853 1.96392 24.9555 3.94871L28.2718 12.3066H28.2697Z" fill="black"/>
<path d="M14.4725 12.7779H12.0417C11.3006 12.7779 10.6871 11.1448 11.6942 10.5502C12.3767 10.1461 15.5172 10.188 16.4363 10.2655C18.4756 10.4371 18.3604 11.5426 18.0066 13.2573C16.3337 21.3912 3.27766 20.0198 2.9657 11.3877C2.75633 5.61752 8.07634 1.89918 13.524 3.62017C14.4829 3.92375 16.7943 5.30557 17.1754 6.23725C17.6695 7.44738 16.8132 8.80827 15.4942 8.71405C14.5562 8.64705 14.0454 7.75934 13.3 7.29036C9.5733 4.94964 5.52416 8.48375 6.94157 12.5475C8.14543 15.9979 13.4319 16.5109 14.4725 12.7779Z" fill="black"/>
<path d="M48.7772 16.0942L43.5765 16.0607C43.3378 16.1172 43.1431 17.9722 42.1738 18.4496C40.5323 19.2619 39.228 17.9952 39.63 16.2219C39.9168 14.9594 41.2944 12.3172 41.8765 10.948C42.7349 8.92968 43.7984 6.00692 44.8222 4.17915C45.5487 2.87899 46.717 2.83921 47.477 4.15193L52.8138 16.6909C52.9017 18.125 51.5617 19.1007 50.2281 18.4768C49.3048 18.0434 49.1875 16.9275 48.7751 16.0921L48.7772 16.0942ZM47.5503 13.0919L46.2941 9.80273C46.0261 9.59337 44.9835 12.8679 44.728 13.0919H47.5503Z" fill="black"/>
<path d="M47.5504 13.0919H44.7281C44.9836 12.8679 46.0262 9.59131 46.2942 9.80277L47.5504 13.0919Z" fill="white"/>
</g>
<defs>
<clipPath id="clip0_382_119">
<rect width="66" height="43" fill="white"/>
</clipPath>
</defs>
</svg>
