<svg width="817" height="95" viewBox="0 0 817 95" fill="none" xmlns="http://www.w3.org/2000/svg">
<g filter="url(#filter0_f_382_231)">
<path d="M353.42 54.42L365.3 76.74H343.61L334.61 59.82C332.72 59.91 330.83 60 328.85 60H323.18V76.74H302.3V13.74H328.85C346.4 13.74 361.16 17.88 361.16 36.87C361.16 45.33 358.19 50.91 353.42 54.42ZM333.62 42.36C338.75 42.36 340.64 39.66 340.64 36.87C340.64 34.08 338.75 31.47 333.62 31.47H323.18V42.36H333.62ZM390.065 59.1H425.255V76.83H369.185V13.74H423.185V31.47H390.065V36.87H420.575V52.17H390.065V59.1ZM451.764 59.1H483.714V76.74L430.884 76.83V13.74H451.764V59.1ZM508.453 59.1H543.643V76.83H487.573V13.74H541.573V31.47H508.453V36.87H538.963V52.17H508.453V59.1ZM596.793 13.74L618.933 76.74H597.333L594.183 67.74H569.793L566.553 76.74H545.043L567.093 13.74H596.793ZM575.103 52.44H588.783L581.943 33L575.103 52.44ZM656.539 38.58C674.539 42.81 680.929 48.12 680.929 58.56C680.929 66.93 673.549 78.27 650.239 78.27C631.969 78.27 622.699 68.28 618.199 60.36L639.889 55.23C644.479 59.82 649.789 60.63 653.209 60.63C656.809 60.63 659.239 59.28 659.239 57.21C659.239 54.33 655.909 53.7 646.999 51.99C637.459 50.1 619.909 45.06 619.909 30.48C619.909 19.95 629.089 12.3 648.619 12.3C665.809 12.3 677.419 22.65 679.399 30.12L659.239 34.26C657.349 31.11 652.039 29.94 647.629 29.94C644.569 29.94 641.509 30.66 641.509 32.64C641.509 35.79 647.089 36.42 656.539 38.58ZM706.735 59.1H741.925V76.83H685.855V13.74H739.855V31.47H706.735V36.87H737.245V52.17H706.735V59.1ZM783.014 38.58C801.014 42.81 807.404 48.12 807.404 58.56C807.404 66.93 800.024 78.27 776.714 78.27C758.444 78.27 749.174 68.28 744.674 60.36L766.364 55.23C770.954 59.82 776.264 60.63 779.684 60.63C783.284 60.63 785.714 59.28 785.714 57.21C785.714 54.33 782.384 53.7 773.474 51.99C763.934 50.1 746.384 45.06 746.384 30.48C746.384 19.95 755.564 12.3 775.094 12.3C792.284 12.3 803.894 22.65 805.874 30.12L785.714 34.26C783.824 31.11 778.514 29.94 774.104 29.94C771.044 29.94 767.984 30.66 767.984 32.64C767.984 35.79 773.564 36.42 783.014 38.58Z" fill="white"/>
</g>
<g filter="url(#filter1_f_382_231)">
<path d="M33.18 59.1H65.13V76.74L12.3 76.83V13.74H33.18V59.1ZM117.3 13.74L139.44 76.74H117.84L114.69 67.74H90.3005L87.0605 76.74H65.5505L87.6005 13.74H117.3ZM95.6105 52.44H109.29L102.45 33L95.6105 52.44ZM177.047 38.58C195.047 42.81 201.437 48.12 201.437 58.56C201.437 66.93 194.057 78.27 170.747 78.27C152.477 78.27 143.207 68.28 138.707 60.36L160.397 55.23C164.987 59.82 170.297 60.63 173.717 60.63C177.317 60.63 179.747 59.28 179.747 57.21C179.747 54.33 176.417 53.7 167.507 51.99C157.967 50.1 140.417 45.06 140.417 30.48C140.417 19.95 149.597 12.3 169.127 12.3C186.317 12.3 197.927 22.65 199.907 30.12L179.747 34.26C177.857 31.11 172.547 29.94 168.137 29.94C165.077 29.94 162.017 30.66 162.017 32.64C162.017 35.79 167.597 36.42 177.047 38.58ZM202.853 13.74H263.873V31.47H243.803V76.74H222.923V31.47H202.853V13.74Z" fill="white"/>
</g>
<defs>
<filter id="filter0_f_382_231" x="293.3" y="3.29993" width="523.104" height="83.9701" filterUnits="userSpaceOnUse" color-interpolation-filters="sRGB">
<feFlood flood-opacity="0" result="BackgroundImageFix"/>
<feBlend mode="normal" in="SourceGraphic" in2="BackgroundImageFix" result="shape"/>
<feGaussianBlur stdDeviation="4.5" result="effect1_foregroundBlur_382_231"/>
</filter>
<filter id="filter1_f_382_231" x="1.81198e-05" y="-7.34329e-05" width="276.172" height="90.5701" filterUnits="userSpaceOnUse" color-interpolation-filters="sRGB">
<feFlood flood-opacity="0" result="BackgroundImageFix"/>
<feBlend mode="normal" in="SourceGraphic" in2="BackgroundImageFix" result="shape"/>
<feGaussianBlur stdDeviation="6.15" result="effect1_foregroundBlur_382_231"/>
</filter>
</defs>
</svg>
