<svg width="113" height="39" viewBox="0 0 113 39" fill="none" xmlns="http://www.w3.org/2000/svg">
<path d="M33.3434 18.2833C33.3434 18.2833 33.3886 20.4979 31.5922 20.8186C30.0896 21.0865 28.9109 21.1997 28.4326 21.2223V6.62513C28.4326 6.62513 28.4515 4.92735 29.939 3.44084C31.532 1.84115 33.3471 1.54687 33.3471 4.02941V18.2833H33.3434ZM35.9117 3.59553C35.8665 2.89755 35.4937 0 32.6015 0C30.9332 0 29.4946 0.935668 28.4289 1.9317V0H25.8492V38.9962H28.4289V23.6784C29.2611 23.6596 32.2249 23.5388 33.7689 22.6032C35.4297 21.6034 35.8515 20.2904 35.9117 18.5738V3.59553Z" fill="#009BE6"/>
<path d="M23.5144 0.0603638H20.9385L20.9461 19.2944C20.9461 20.6187 19.756 21.6977 18.276 21.6977C16.796 21.6977 15.6022 20.6187 15.6022 19.2944L15.5909 0.0603638H13.015L13.0263 19.2944C13.0263 21.5053 14.7097 23.354 16.9881 23.8709V39H19.564V23.8709C21.8386 23.354 23.5219 21.5053 23.5219 19.2944L23.5106 0.0603638H23.5144Z" fill="#009BE6"/>
<path d="M3.59268 0.0301819V2.66741H7.91595V34.7857C7.91595 35.9327 6.72215 36.8646 5.24592 36.8646C3.76968 36.8646 2.57588 35.9327 2.57588 34.7857V23.1993H0V34.7857C0 37.0419 2.34993 38.8642 5.24968 38.8642C8.14944 38.8642 10.4504 37.0721 10.4956 34.8461V0.0301819H3.59268Z" fill="#009BE6"/>
<path d="M108.134 29.7603H109.852V38.9057H111.283V29.7603H113V28.5567H108.134V29.7603ZM102.335 38.9095H103.593V30.0772H103.623L105.31 38.9095H107.37V28.5567H106.026V37.1589H105.995L104.308 28.5567H102.335V38.9095ZM97.6765 38.9095H101.57V37.7059H99.1076V34.2085H101.427V33.0049H99.1076V29.7641H101.57V28.5605H97.6765V38.9132V38.9095ZM89.4969 38.9095H90.7548V29.5905H90.7849L92.3892 38.9095H93.8202L95.2814 29.5905H95.3115V38.9095H96.6559V28.5567H94.4378L93.1198 36.442H93.0896L91.7716 28.5567H89.4969V38.9095ZM83.4451 38.9095H84.7029V30.0772H84.7293L86.4164 38.9095H88.4764V28.5567H87.1319V37.1589H87.1056L85.4185 28.5567H83.4414V38.9095H83.4451ZM81.0349 38.9095H82.466V28.5567H81.0349V38.9095ZM77.2276 30.0772H77.2577L78.1465 35.0649H76.3275L77.2276 30.0772ZM74.2111 38.9095H75.6421L76.1129 36.2722H78.3461L78.8168 38.9095H80.2479L78.1427 28.5567H76.4819L74.2073 38.9095H74.2111ZM69.643 29.7603H71.3603V38.9057H72.7914V29.7603H74.5086V28.5567H69.643V29.7603ZM65.8319 29.7603H66.5173C67.4061 29.7603 67.489 29.9037 67.489 31.4392C67.489 32.9748 67.3308 33.2011 66.201 33.2011H65.8282V29.7603H65.8319ZM64.4009 38.9095H65.8319V34.4084H66.3178C67.263 34.4084 67.4325 34.665 67.4325 35.6422V37.9776C67.4325 38.3926 67.4626 38.6529 67.6057 38.9095H68.9501C68.8635 38.4794 68.8635 37.9625 68.8635 37.589V35.3366C68.8635 34.3632 68.5359 33.8614 67.5605 33.7595V33.7293C68.7355 33.3709 68.92 32.7672 68.92 31.3788C68.92 29.1151 68.7053 28.553 66.6153 28.553H64.3971V38.9057L64.4009 38.9095ZM59.7462 38.9095H63.6402V37.7059H61.1773V34.2085H63.4971V33.0049H61.1773V29.7641H63.6402V28.5605H59.7462V38.9132V38.9095ZM54.1162 29.7603H55.8334V38.9057H57.2645V29.7603H58.9817V28.5567H54.1162V29.7603ZM48.3167 38.9095H49.5745V30.0772H49.6046L51.2918 38.9095H53.3517V28.5567H52.0073V37.1589H51.9772L50.29 28.5567H48.3167V38.9095ZM43.662 38.9095H47.556V37.7059H45.0931V34.2085H47.4129V33.0049H45.0931V29.7641H47.556V28.5605H43.662V38.9132V38.9095Z" fill="white"/>
<path d="M80.6356 24.6745H81.8934V15.8422H81.9236L83.6107 24.6745H85.6707V14.3218H84.3262V22.9239H84.2961L82.609 14.3218H80.6356V24.6745ZM78.2254 24.6745H79.6565V14.3218H78.2254V24.6745ZM71.4694 15.5291H72.1548C73.0436 15.5291 73.1264 15.6724 73.1264 17.208C73.1264 18.7436 72.9682 18.9699 71.8385 18.9699H71.4656V15.5291H71.4694ZM70.0383 24.6745H71.4694V20.1735H71.9552C72.9004 20.1735 73.0699 20.43 73.0699 21.4072V23.7426C73.0699 24.1576 73.1 24.4179 73.2431 24.6745H74.5876C74.501 24.2444 74.501 23.7275 74.501 23.354V21.1016C74.501 20.1282 74.1733 19.6264 73.1979 19.5245V19.4943C74.3729 19.1359 74.5574 18.5323 74.5574 17.1439C74.5574 14.8801 74.3428 14.318 72.2527 14.318H70.0346V24.6707L70.0383 24.6745ZM65.3837 24.6745H69.2776V23.4709H66.8147V19.9735H69.1345V18.77H66.8147V15.5291H69.2776V14.3255H65.3837V24.6783V24.6745ZM59.603 24.6745H61.678C63.9376 24.6745 64.4121 23.8445 64.4121 21.1921V18.1097C64.4121 15.099 64.2275 14.3255 61.9077 14.3255H59.603V24.6783V24.6745ZM61.0341 15.5291H61.6065C62.8229 15.5291 62.981 16.046 62.981 17.5777V21.1318C62.981 22.9088 62.7814 23.4672 61.7232 23.4672H61.0378V15.5253L61.0341 15.5291ZM55.7806 15.8422H55.8107L56.6995 20.8299H54.8805L55.7806 15.8422ZM52.7603 24.6745H54.1914L54.6621 22.0373H56.8953L57.3661 24.6745H58.7971L56.692 14.3218H55.0312L52.7566 24.6745H52.7603ZM48.2902 24.6745H52.1842V23.4709H49.7212V19.9735H52.0411V18.77H49.7212V15.5291H52.1842V14.3255H48.2902V24.6783V24.6745ZM43.6619 24.6745H47.4956V23.4709H45.0929V14.3255H43.6619V24.6783V24.6745Z" fill="white"/>
</svg>
