<svg width="106" height="36" viewBox="0 0 106 36" fill="none" xmlns="http://www.w3.org/2000/svg">
<path d="M31.2778 16.877C31.2778 16.877 31.3202 18.9213 29.6351 19.2174C28.2256 19.4646 27.1199 19.5691 26.6713 19.59V6.11557C26.6713 6.11557 26.6889 4.54837 28.0843 3.1762C29.5786 1.69954 31.2814 1.4279 31.2814 3.71949V16.877H31.2778ZM33.6871 3.31898C33.6447 2.67469 33.2949 0 30.5819 0C29.0169 0 27.6675 0.863702 26.6677 1.78313V0H24.2479V35.9969H26.6677V21.8572C27.4485 21.8398 30.2286 21.7284 31.677 20.8647C33.2349 19.9418 33.6305 18.7298 33.6871 17.1452V3.31898Z" fill="white"/>
<path d="M22.0578 0.0551758H19.6415L19.6485 17.8098C19.6485 19.0322 18.5322 20.0283 17.1439 20.0283C15.7556 20.0283 14.6357 19.0322 14.6357 17.8098L14.6251 0.0551758H12.2088L12.2194 17.8098C12.2194 19.8507 13.7985 21.5572 15.9358 22.0343V35.9998H18.3521V22.0343C20.4858 21.5572 22.0649 19.8507 22.0649 17.8098L22.0543 0.0551758H22.0578Z" fill="white"/>
<path d="M3.37012 0.0273438V2.46173H7.42558V32.1097C7.42558 33.1684 6.30574 34.0287 4.92095 34.0287C3.53616 34.0287 2.41632 33.1684 2.41632 32.1097V21.4144H0V32.1097C0 34.1923 2.20436 35.8745 4.92448 35.8745C7.6446 35.8745 9.80303 34.2202 9.84543 32.1654V0.0273438H3.37012Z" fill="white"/>
<path d="M101.436 27.4714H103.047V35.9134H104.389V27.4714H106V26.3604H101.436V27.4714ZM95.9954 35.9169H97.1753V27.7639H97.2035L98.7862 35.9169H100.719V26.3604H99.4574V34.3009H99.4291L97.8465 26.3604H95.9954V35.9169ZM91.6255 35.9169H95.2783V34.8059H92.9679V31.5775H95.144V30.4665H92.9679V27.4749H95.2783V26.3639H91.6255V35.9203V35.9169ZM83.9527 35.9169H85.1326V27.3147H85.1608L86.6657 35.9169H88.0081L89.3788 27.3147H89.407V35.9169H90.6682V26.3604H88.5875L87.3511 33.6392H87.3228L86.0864 26.3604H83.9527V35.9169ZM78.2757 35.9169H79.4556V27.7639H79.4804L81.063 35.9169H82.9953V26.3604H81.7342V34.3009H81.7095L80.1268 26.3604H78.2722V35.9169H78.2757ZM76.0149 35.9169H77.3573V26.3604H76.0149V35.9169ZM72.4434 27.7639H72.4716L73.3053 32.368H71.5991L72.4434 27.7639ZM69.6137 35.9169H70.9561L71.3977 33.4825H73.4926L73.9341 35.9169H75.2765L73.3018 26.3604H71.7439L69.6102 35.9169H69.6137ZM65.3287 27.4714H66.9395V35.9134H68.2819V27.4714H69.8928V26.3604H65.3287V27.4714ZM61.7537 27.4714H62.3966C63.2303 27.4714 63.308 27.6037 63.308 29.0212C63.308 30.4386 63.1596 30.6476 62.0998 30.6476H61.7501V27.4714H61.7537ZM60.4113 35.9169H61.7537V31.762H62.2094C63.0961 31.762 63.255 31.9989 63.255 32.9009V35.0566C63.255 35.4397 63.2833 35.68 63.4175 35.9169H64.6787C64.5974 35.5198 64.5974 35.0427 64.5974 34.6979V32.6188C64.5974 31.7202 64.2901 31.2571 63.3751 31.163V31.1352C64.4773 30.8043 64.6504 30.2471 64.6504 28.9655C64.6504 26.8759 64.449 26.3569 62.4884 26.3569H60.4077V35.9134L60.4113 35.9169ZM56.0449 35.9169H59.6977V34.8059H57.3873V31.5775H59.5634V30.4665H57.3873V27.4749H59.6977V26.3639H56.0449V35.9203V35.9169ZM50.7637 27.4714H52.3745V35.9134H53.7169V27.4714H55.3278V26.3604H50.7637V27.4714ZM45.3234 35.9169H46.5033V27.7639H46.5316L48.1142 35.9169H50.0465V26.3604H48.7854V34.3009H48.7571L47.1745 26.3604H45.3234V35.9169ZM40.9571 35.9169H44.6098V34.8059H42.2995V31.5775H44.4756V30.4665H42.2995V27.4749H44.6098V26.3639H40.9571V35.9203V35.9169Z" fill="white"/>
<path d="M75.6406 22.7762H76.8205V14.6233H76.8487L78.4314 22.7762H80.3637V13.2198H79.1026V21.1603H79.0743L77.4917 13.2198H75.6406V22.7762ZM73.3797 22.7762H74.7221V13.2198H73.3797V22.7762ZM67.0422 14.3342H67.6851C68.5188 14.3342 68.5965 14.4666 68.5965 15.884C68.5965 17.3015 68.4482 17.5104 67.3884 17.5104H67.0386V14.3342H67.0422ZM65.6998 22.7762H67.0422V18.6214H67.4979C68.3846 18.6214 68.5435 18.8582 68.5435 19.7602V21.916C68.5435 22.2991 68.5718 22.5394 68.706 22.7762H69.9672C69.8859 22.3792 69.8859 21.9021 69.8859 21.5573V19.4782C69.8859 18.5796 69.5786 18.1164 68.6636 18.0224V17.9945C69.7658 17.6637 69.9389 17.1065 69.9389 15.8248C69.9389 13.7352 69.7376 13.2163 67.777 13.2163H65.6962V22.7728L65.6998 22.7762ZM61.3335 22.7762H64.9862V21.6653H62.6758V18.4368H64.8519V17.3259H62.6758V14.3342H64.9862V13.2233H61.3335V22.7797V22.7762ZM55.9109 22.7762H57.8573C59.9769 22.7762 60.422 22.0101 60.422 19.5617V16.7164C60.422 13.9372 60.2489 13.2233 58.0728 13.2233H55.9109V22.7797V22.7762ZM57.2533 14.3342H57.7902C58.9313 14.3342 59.0796 14.8114 59.0796 16.2253V19.506C59.0796 21.1463 58.8924 21.6618 57.8997 21.6618H57.2568V14.3308L57.2533 14.3342ZM52.3253 14.6233H52.3535L53.1872 19.2274H51.481L52.3253 14.6233ZM49.4921 22.7762H50.8345L51.2761 20.3419H53.3709L53.8125 22.7762H55.1549L53.1802 13.2198H51.6223L49.4886 22.7762H49.4921ZM45.2989 22.7762H48.9516V21.6653H46.6413V18.4368H48.8174V17.3259H46.6413V14.3342H48.9516V13.2233H45.2989V22.7797V22.7762ZM40.9573 22.7762H44.5535V21.6653H42.2997V13.2233H40.9573V22.7797V22.7762Z" fill="white"/>
</svg>
