<svg width="97" height="35" viewBox="0 0 97 35" fill="none" xmlns="http://www.w3.org/2000/svg">
<g clip-path="url(#clip0_382_176)">
<path d="M49.8785 0.310679C49.8835 0.26593 49.9133 0.10682 49.9457 0.091903L67.1519 0.0546115C75.5375 0.556803 72.4225 10.1904 73.0838 15.6399C73.2155 16.7313 74.2348 17.2286 75.2566 17.067V6.8516C75.5326 3.57244 77.9391 0.442442 81.3252 0.0546115C87.1799 0.474762 96.4357 -2.10332 97 6.48614V21.4997H91.2173L91.108 21.3903V14.6679H81.0741V21.4997C80.9398 21.4798 80.818 21.4276 80.6788 21.4226C77.7526 21.3306 74.8116 21.5046 71.8855 21.4176C64.9095 20.0727 67.8331 11.8884 67.1693 6.94358C67.1022 6.44636 66.7964 5.88699 66.3166 5.6881C66.2022 5.64087 65.715 5.50662 65.6255 5.50662H55.7731V21.3878L55.6637 21.4972H49.9929L49.8835 21.3878V0.310679H49.8785ZM81.0716 6.49111C80.9647 7.36125 81.1511 8.43275 81.0716 9.32526L81.181 9.43465H91.1055V6.05356C91.1055 5.84224 90.4665 5.31768 90.198 5.36243C87.6448 5.57872 84.6217 5.07901 82.1257 5.36243C81.5365 5.42955 81.1412 5.9218 81.0716 6.48863V6.49111Z" fill="white"/>
<path d="M0 0.057335H17.2709C25.3283 0.566985 22.703 9.83515 23.1182 15.2872C23.1654 15.9186 23.3668 16.5252 23.9411 16.8633C24.4259 17.1492 24.8063 16.9976 25.301 17.1393V7.14271C25.4875 3.7641 27.8816 0.472513 31.3745 0.0598211C37.908 0.497374 46.659 -2.2423 47.119 7.14271C47.3452 11.7793 46.94 16.5973 47.119 21.2513L47.0071 21.5024H41.2269V14.6706H31.193V21.393C31.1383 21.4676 31.1284 21.4726 31.0439 21.4726C28.0332 21.4825 25.0151 21.3831 22.0044 21.4204C19.5904 21.1195 17.5071 19.0412 17.3057 16.5948C17.067 13.6762 17.5121 10.4418 17.3057 7.50816C17.2535 6.76233 17.0422 5.92701 16.2665 5.64111C16.1994 5.61624 15.7768 5.51431 15.7395 5.51431H5.81746V21.5049H0V0.057335ZM41.2269 9.43489V6.34467C41.2269 5.86237 40.7148 5.40244 40.2499 5.36018C37.6942 5.12151 34.7681 5.54663 32.1726 5.36018C31.8394 5.31791 31.193 5.93695 31.193 6.19799V9.4324H41.2269V9.43489Z" fill="white"/>
<path d="M64.2034 7.9082V21.3928L64.094 21.5022H58.6395L58.5302 21.3928V8.30846C58.5302 8.17422 58.5277 7.9803 58.6395 7.9082H64.2009H64.2034Z" fill="white"/>
<path d="M14.2503 7.9082H8.65161V21.4997H14.2503V7.9082Z" fill="white"/>
<path d="M30.4671 25.8604L32.1029 31.0937L33.8457 25.9301L36.0558 25.8704L37.7016 31.1658L39.519 25.858H41.7365L39.0391 34.2088L36.6077 34.2212L34.9744 29.1993C34.7829 29.1794 34.86 29.2018 34.8277 29.3062C34.3379 30.9296 33.7786 32.5281 33.2664 34.1441C33.2117 34.2237 33.1322 34.2087 33.0501 34.2187C32.6175 34.2709 31.367 34.2709 30.9345 34.2187C30.8549 34.2087 30.7753 34.2187 30.7182 34.1441L27.9934 25.8555H30.4646L30.4671 25.8604Z" fill="white"/>
<path d="M62.0952 34.2213V25.863H66.6398C67.1022 25.863 68.3105 26.2882 68.7331 26.5318C71.2142 27.9563 71.3485 31.77 68.9966 33.3785C67.0823 34.6862 64.2904 34.0746 62.0952 34.2213ZM64.4222 32.3319H66.2768C66.3912 32.3319 66.9779 32.1454 67.1171 32.0808C69.0687 31.1758 68.4248 27.7525 66.2768 27.7525H64.4222V32.3319Z" fill="white"/>
<path d="M56.8248 25.8604C57.3891 25.9126 58.1946 26.1786 58.6719 26.4844C60.534 27.6727 60.3873 30.6212 58.386 31.5684L60.0592 34.2186H57.6228L55.4624 31.0737L55.4052 30.1489H56.606C56.6308 30.1489 57.0261 29.9898 57.0734 29.9624C57.7894 29.5298 57.757 28.3166 57.0336 27.9064C56.9839 27.8766 56.6333 27.7523 56.606 27.7523H54.8234V34.2211H52.4965V25.8628C53.8912 25.9573 55.4475 25.7361 56.8223 25.8628L56.8248 25.8604Z" fill="white"/>
<path d="M18.6855 34.2212L22.2854 25.9325L24.5428 25.8555L28.2844 34.2212H25.9226L25.122 32.548H22.3227L23.0859 30.8053H24.503L23.4116 28.2943L20.9777 34.2212H18.6855Z" fill="white"/>
<path d="M51.0419 34.2211H48.6777L47.9865 32.5505H45.1499L45.8037 30.8052H47.1487C47.1636 30.8052 47.2307 30.9146 47.2581 30.8773C47.2705 30.7406 47.2133 30.6188 47.1686 30.4945C46.9647 29.9351 46.5968 28.9233 46.3283 28.4285C46.291 28.3614 46.2587 28.2694 46.1692 28.262L43.8422 34.2211H41.4431L45.1847 25.8579L47.4446 25.935L51.0419 34.2236V34.2211Z" fill="white"/>
<path d="M78.956 26.3801L78.3096 28.1875C77.4419 27.7425 76.1467 27.3074 75.1846 27.643C74.6252 27.8394 74.4213 28.4734 74.9882 28.7841C75.7066 29.1794 77.0417 29.2192 77.8944 29.5871C80.1045 30.5368 79.7117 33.2641 77.6035 34.0596C75.8906 34.706 73.7153 34.3231 72.1292 33.4928L72.9695 31.75C73.8968 32.302 75.5674 32.8166 76.6066 32.4089C77.1038 32.2149 77.1635 31.6481 76.7036 31.3572C75.3636 30.507 72.2211 31.0763 72.2733 28.3739C72.3305 25.326 76.992 25.2588 78.956 26.3801Z" fill="white"/>
</g>
<defs>
<clipPath id="clip0_382_176">
<rect width="97" height="34.3852" fill="white"/>
</clipPath>
</defs>
</svg>
