<svg width="19" height="18" viewBox="0 0 19 18" fill="none" xmlns="http://www.w3.org/2000/svg">
<g opacity="0.5" clip-path="url(#clip0_335_670)">
<path d="M18.4396 0.110307C18.3171 0.0367683 18.1853 0 18.0443 0C17.9034 0 17.7716 0.0367683 17.6491 0.110307L12.5566 3.08859L6.58164 0.110307C6.58164 0.110307 6.57857 0.110307 6.57244 0.110307C6.56632 0.110307 6.54487 0.110307 6.5081 0.110307C6.47133 0.0735378 6.43456 0.0520895 6.39779 0.0459611C6.36102 0.0398328 6.31813 0.0367689 6.2691 0.0367689C6.23233 0.0367689 6.1925 0.0398328 6.1496 0.0459611C6.1067 0.0520895 6.04236 0.0735378 5.95657 0.110307C5.95657 0.110307 5.9535 0.110307 5.94737 0.110307C5.94124 0.110307 5.9198 0.110307 5.88303 0.110307C5.88303 0.110307 5.87077 0.110307 5.84626 0.110307C5.82175 0.110307 5.80949 0.110307 5.80949 0.110307L0.312536 3.25405C0.238997 3.32759 0.168525 3.42564 0.101115 3.5482C0.0337045 3.67076 0 3.80558 0 3.95266V16.5092C0 16.6686 0.0367683 16.8065 0.110307 16.9229C0.183845 17.0393 0.275766 17.1343 0.386074 17.2079C0.508637 17.2936 0.640391 17.3365 0.78134 17.3365C0.922288 17.3365 1.05404 17.2936 1.17661 17.2079L6.2691 14.2296L12.1521 17.2079C12.2379 17.2569 12.3053 17.2845 12.3544 17.2906C12.4034 17.2967 12.4708 17.2998 12.5566 17.2998C12.5934 17.2998 12.6301 17.2967 12.6669 17.2906C12.7037 17.2845 12.7404 17.2569 12.7772 17.2079C12.7772 17.2079 12.7925 17.2079 12.8232 17.2079C12.8538 17.2079 12.8691 17.2079 12.8691 17.2079C12.8691 17.2079 12.8722 17.2079 12.8783 17.2079C12.8844 17.2079 12.9059 17.2079 12.9427 17.2079L18.4396 14.0825C18.5499 13.9967 18.6418 13.8956 18.7154 13.7792C18.7889 13.6627 18.8257 13.5248 18.8257 13.3655V0.827301C18.8257 0.667968 18.7889 0.530086 18.7154 0.41365C18.6418 0.297215 18.5499 0.196101 18.4396 0.110307ZM7.05963 2.07744L11.7661 4.43066V15.2591L7.05963 12.9059V2.07744ZM1.56268 4.43066L5.49695 2.15098V12.9059L1.56268 15.1672V4.43066ZM17.263 12.9059L13.3287 15.1672V4.43066L17.263 2.15098V12.9059Z" fill="white"/>
</g>
<defs>
<clipPath id="clip0_335_670">
<rect width="18.8257" height="17.3365" fill="white"/>
</clipPath>
</defs>
</svg>
