<svg width="88" height="30" viewBox="0 0 88 30" fill="none" xmlns="http://www.w3.org/2000/svg">
<g clip-path="url(#clip0_382_168)">
<path d="M87.7202 30H0V0.358081L0.358081 0H87.3645L87.7226 0.358081V30.0024L87.7202 30ZM11.3225 3.33254H3.33731V26.9038H8.582V11.6663L13.9437 26.6675L18.9234 26.9181L24.3137 11.6639V26.9014H29.439L29.7971 26.5433V3.33254H21.4538L16.5648 18.5725L11.3225 3.33254ZM40.8809 3.33254H32.8957V26.9038H38.1404L38.3815 11.905L43.4996 26.6722L48.2812 26.9205L53.8744 11.9026V26.5457L54.2325 26.9038H59.3578V3.33254H51.0146L46.128 18.8112L40.8833 3.33254H40.8809ZM84.8604 26.9062L76.7606 3.44951C75.6624 3.37551 69.4199 3.06995 69.0045 3.56887L61.0241 26.9062H66.9826L68.3863 22.2846L77.4863 22.2464L79.26 26.9038H84.8627L84.8604 26.9062Z" fill="white"/>
<path d="M40.881 3.33252L46.1256 18.8135L51.0122 3.33252H59.3555V26.9062H54.2302L53.8721 26.5481V11.905L48.2789 26.9229L43.4973 26.6722L38.3815 11.9074L38.1404 26.9062H32.8958V3.33252H40.881Z" fill="black"/>
<path d="M11.3225 3.33252L16.5648 18.5724L21.4538 3.33252H29.7971V26.5481L29.439 26.9062H24.3136V11.6663L18.9233 26.9205L13.9436 26.6698L8.58197 11.6663V26.9062H3.33728V3.33252H11.3225Z" fill="black"/>
<path d="M84.8604 26.9062H79.2576L77.4839 22.2487L68.3839 22.2869L66.9802 26.9086H61.0217L69.0022 3.57125C69.4175 3.07232 75.6601 3.37788 76.7582 3.45189L84.858 26.9086L84.8604 26.9062ZM75.8033 17.3812L73.1798 8.33372C72.8217 8.39579 72.7143 8.7658 72.5901 9.04988C71.8787 10.6565 70.5204 14.877 70.1385 16.603C70.0812 16.8632 70.0597 17.1162 70.0836 17.3812H75.8057H75.8033Z" fill="black"/>
<path d="M75.8034 17.3812H70.0813C70.0574 17.1163 70.0812 16.8656 70.1362 16.603C70.5157 14.8771 71.8764 10.6565 72.5878 9.0499C72.7143 8.76582 72.8194 8.39581 73.1775 8.33374L75.801 17.3812H75.8034Z" fill="white"/>
</g>
<defs>
<clipPath id="clip0_382_168">
<rect width="87.7202" height="30" fill="white"/>
</clipPath>
</defs>
</svg>
