<svg width="15" height="15" viewBox="0 0 15 15" fill="none" xmlns="http://www.w3.org/2000/svg">
<g opacity="0.5" clip-path="url(#clip0_335_666)">
<path d="M14.9037 11.7814C14.9592 12.0034 14.8898 12.2116 14.6955 12.4058L12.614 14.4874C12.392 14.7094 12.1144 14.8482 11.7814 14.9037H11.49C9.21418 14.9037 6.73026 13.5576 4.03815 10.8655C1.34603 8.17341 0 5.59236 0 3.12228C0.0555076 2.78923 0.194274 2.5117 0.416304 2.28967L2.53945 0.208152C2.67822 0.0693835 2.84474 0 3.03902 0C3.31655 0 3.5247 0.138766 3.66347 0.416304L5.37032 3.58021C5.56459 3.96876 5.49521 4.32956 5.16216 4.6626L4.41282 5.45358C4.35731 5.50908 4.32956 5.57847 4.32956 5.66173C4.35731 6.35557 5.00951 7.34081 6.28618 8.61749C6.84126 9.17256 7.36857 9.61661 7.86814 9.94966C8.36771 10.2827 8.7285 10.477 8.95053 10.5325L9.28357 10.6157C9.31132 10.6157 9.36683 10.5741 9.45009 10.4909L10.366 9.61661C10.5602 9.42234 10.7823 9.3252 11.032 9.3252C11.1708 9.3252 11.3096 9.36683 11.4483 9.45009H11.49L14.529 11.2402C14.7233 11.3512 14.8482 11.5316 14.9037 11.7814Z" fill="white"/>
</g>
<defs>
<clipPath id="clip0_335_666">
<rect width="14.9037" height="14.9037" fill="white"/>
</clipPath>
</defs>
</svg>
