<svg width="15" height="15" viewBox="0 0 15 15" fill="none" xmlns="http://www.w3.org/2000/svg">
<g clip-path="url(#clip0_391_38)">
<path d="M6.42053 12.8223C7.15895 12.8223 7.86295 12.7034 8.53254 12.4656C9.20213 12.2278 9.80601 11.8899 10.3442 11.4518V11.4706L13.8548 15L14.9812 13.8548L11.4706 10.3442C11.8961 9.806 12.2278 9.20213 12.4656 8.53254C12.7034 7.86295 12.8223 7.15895 12.8223 6.42053C12.8223 5.53191 12.6533 4.69963 12.3154 3.92365C11.9775 3.14768 11.5207 2.46871 10.9449 1.88673C10.3692 1.30475 9.68711 0.844808 8.89862 0.506884C8.12265 0.168959 7.29663 0 6.42053 0C5.53191 0 4.69963 0.168959 3.92365 0.506884C3.14768 0.844808 2.46871 1.30475 1.88673 1.88673C1.30475 2.46871 0.844808 3.14768 0.506884 3.92365C0.168959 4.69963 0 5.53191 0 6.42053C0 7.29663 0.168959 8.12265 0.506884 8.89862C0.844808 9.68711 1.30475 10.3692 1.88673 10.9449C2.46871 11.5207 3.14768 11.9775 3.92365 12.3154C4.69963 12.6533 5.53191 12.8223 6.42053 12.8223ZM6.42053 1.61452C7.08386 1.61452 7.70338 1.73967 8.2791 1.98999C8.86734 2.2403 9.37735 2.58135 9.80914 3.01314C10.2409 3.44493 10.5882 3.95494 10.8511 4.54318C11.1014 5.13142 11.2265 5.75719 11.2265 6.42053C11.2265 7.08386 11.1014 7.70338 10.8511 8.2791C10.5882 8.86734 10.2409 9.37734 9.80914 9.80914C9.37735 10.2409 8.86734 10.5882 8.2791 10.8511C7.70338 11.1014 7.08386 11.2265 6.42053 11.2265C5.75719 11.2265 5.13142 11.1014 4.54318 10.8511C3.95494 10.5882 3.44493 10.2409 3.01314 9.80914C2.58135 9.37734 2.2403 8.86734 1.98999 8.2791C1.73967 7.70338 1.61452 7.08386 1.61452 6.42053C1.61452 5.75719 1.73967 5.13142 1.98999 4.54318C2.2403 3.95494 2.58135 3.44493 3.01314 3.01314C3.44493 2.58135 3.95494 2.2403 4.54318 1.98999C5.13142 1.73967 5.75719 1.61452 6.42053 1.61452Z" fill="white"/>
</g>
<defs>
<clipPath id="clip0_391_38">
<rect width="14.9812" height="15" fill="white"/>
</clipPath>
</defs>
</svg>
