<svg width="35" height="55" viewBox="0 0 35 55" fill="none" xmlns="http://www.w3.org/2000/svg">
<path d="M17.5 0.921875C26.8652 0.921875 34.4531 8.50977 34.4531 17.875C34.4531 27.2402 26.8652 34.8281 17.5 34.8281C8.13477 34.8281 0.546875 27.2402 0.546875 17.875C0.546875 8.50977 8.13477 0.921875 17.5 0.921875ZM24.4043 25.873C24.9512 25.873 25.4297 25.4629 25.4297 24.8477C25.4297 24.1641 25.1562 23.959 24.7461 23.6855C19.8926 20.7461 14.1504 20.6777 8.54492 21.9082C8.06641 21.9766 7.65625 22.3184 7.65625 23.0703C7.65625 23.6172 8.06641 24.0957 8.68164 24.0957C8.88672 24.0957 9.22852 24.0273 9.50195 23.959C14.4238 22.9336 19.4141 23.0703 23.6523 25.5996C23.9258 25.8047 24.1309 25.873 24.4043 25.873ZM26.25 21.3613C27.002 21.3613 27.5488 20.8145 27.5488 20.0625C27.5488 19.4473 27.3438 19.0371 26.7969 18.6953C23.3789 16.7129 19.1406 15.6191 14.6973 15.6191C11.8262 15.6191 9.91211 15.9609 7.99805 16.5078C7.31445 16.7129 6.9043 17.1914 6.9043 17.9434C6.9043 18.6953 7.51953 19.2422 8.27148 19.2422C8.54492 19.2422 8.75 19.1738 9.0918 19.1055C14.7656 17.5332 21.123 18.5586 25.3613 21.0879C25.6348 21.2246 25.8398 21.3613 26.25 21.3613ZM28.3691 16.166C29.1895 16.166 29.9414 15.4824 29.9414 14.5938C29.9414 13.7734 29.5996 13.3633 29.0527 13.0215C25.2246 10.834 20.0293 9.74023 15.0391 9.74023C12.0996 9.74023 9.36523 10.082 6.97266 10.834C6.35742 10.9707 5.81055 11.5176 5.81055 12.4746C5.81055 13.3633 6.49414 14.0469 7.38281 14.0469C7.72461 14.0469 7.99805 13.9785 8.27148 13.9102C13.877 12.3379 22.627 13.0215 27.4805 15.8926C27.7539 16.0977 27.959 16.166 28.3691 16.166Z" fill="#00E00B"/>
<path d="M3.0415 51.0674C2.54742 51.0674 2.10467 50.9872 1.71325 50.8267C1.32183 50.6663 1.00742 50.4289 0.77 50.1145C0.539 49.8001 0.417083 49.4215 0.40425 48.9787H2.156C2.18167 49.229 2.26829 49.4215 2.41588 49.5562C2.56346 49.6846 2.75596 49.7487 2.99338 49.7487C3.23721 49.7487 3.42971 49.6942 3.57088 49.5851C3.71204 49.4696 3.78263 49.3124 3.78263 49.1135C3.78263 48.9467 3.72488 48.8087 3.60938 48.6996C3.50029 48.5905 3.36233 48.5007 3.1955 48.4301C3.03508 48.3595 2.80408 48.2793 2.5025 48.1895C2.06617 48.0547 1.71004 47.92 1.43413 47.7852C1.15821 47.6505 0.920792 47.4516 0.721875 47.1885C0.522958 46.9254 0.4235 46.5821 0.4235 46.1586C0.4235 45.5298 0.651292 45.0389 1.10688 44.686C1.56246 44.3267 2.156 44.147 2.8875 44.147C3.63183 44.147 4.23179 44.3267 4.68738 44.686C5.14296 45.0389 5.38679 45.533 5.41888 46.1682H3.63825C3.62542 45.9501 3.54521 45.78 3.39763 45.6581C3.25004 45.5298 3.06075 45.4656 2.82975 45.4656C2.63083 45.4656 2.47042 45.5202 2.3485 45.6292C2.22658 45.7319 2.16563 45.8827 2.16563 46.0816C2.16563 46.2998 2.26829 46.4698 2.47363 46.5917C2.67896 46.7137 2.99979 46.8452 3.43613 46.9864C3.87246 47.134 4.22538 47.2751 4.49488 47.4099C4.77079 47.5446 5.00821 47.7403 5.20713 47.997C5.40604 48.2537 5.5055 48.5841 5.5055 48.9884C5.5055 49.3734 5.40604 49.7231 5.20713 50.0375C5.01463 50.3519 4.73229 50.6022 4.36013 50.7882C3.98796 50.9743 3.54842 51.0674 3.0415 51.0674ZM8.16426 46.3896C8.32467 46.1394 8.54605 45.9372 8.82838 45.7832C9.11072 45.6292 9.44117 45.5522 9.81976 45.5522C10.2625 45.5522 10.6635 45.6645 11.0229 45.8891C11.3822 46.1137 11.6645 46.4345 11.8699 46.8516C12.0816 47.2687 12.1875 47.7532 12.1875 48.305C12.1875 48.8568 12.0816 49.3445 11.8699 49.768C11.6645 50.1851 11.3822 50.5091 11.0229 50.7401C10.6635 50.9647 10.2625 51.077 9.81976 51.077C9.44759 51.077 9.11713 51 8.82838 50.846C8.54605 50.692 8.32467 50.4931 8.16426 50.2492V53.5603H6.51838V45.6292H8.16426V46.3896ZM10.5128 48.305C10.5128 47.8943 10.3973 47.5735 10.1663 47.3425C9.94167 47.1051 9.66255 46.9864 9.32888 46.9864C9.00163 46.9864 8.72251 47.1051 8.49151 47.3425C8.26692 47.5799 8.15463 47.904 8.15463 48.3146C8.15463 48.7253 8.26692 49.0493 8.49151 49.2867C8.72251 49.5242 9.00163 49.6429 9.32888 49.6429C9.65613 49.6429 9.93526 49.5242 10.1663 49.2867C10.3973 49.0429 10.5128 48.7157 10.5128 48.305ZM15.4957 51.077C14.9696 51.077 14.4947 50.9647 14.0712 50.7401C13.6541 50.5155 13.3237 50.1947 13.0798 49.7776C12.8424 49.3605 12.7237 48.8729 12.7237 48.3146C12.7237 47.7628 12.8456 47.2783 13.0895 46.8612C13.3333 46.4377 13.667 46.1137 14.0905 45.8891C14.514 45.6645 14.9888 45.5522 15.515 45.5522C16.0411 45.5522 16.516 45.6645 16.9395 45.8891C17.363 46.1137 17.6966 46.4377 17.9405 46.8612C18.1843 47.2783 18.3062 47.7628 18.3062 48.3146C18.3062 48.8665 18.1811 49.3541 17.9309 49.7776C17.687 50.1947 17.3501 50.5155 16.9202 50.7401C16.4967 50.9647 16.0219 51.077 15.4957 51.077ZM15.4957 49.6525C15.8101 49.6525 16.0764 49.537 16.2946 49.306C16.5192 49.075 16.6315 48.7445 16.6315 48.3146C16.6315 47.8847 16.5224 47.5542 16.3042 47.3232C16.0925 47.0922 15.8294 46.9767 15.515 46.9767C15.1941 46.9767 14.9278 47.0922 14.7161 47.3232C14.5043 47.5478 14.3985 47.8783 14.3985 48.3146C14.3985 48.7445 14.5011 49.075 14.7065 49.306C14.9182 49.537 15.1813 49.6525 15.4957 49.6525ZM22.1728 49.6044V51H21.3354C20.7386 51 20.2734 50.8556 19.9398 50.5669C19.6061 50.2717 19.4393 49.7937 19.4393 49.1327V46.996H18.7848V45.6292H19.4393V44.3202H21.0851V45.6292H22.1631V46.996H21.0851V49.152C21.0851 49.3124 21.1236 49.4279 21.2006 49.4985C21.2776 49.5691 21.406 49.6044 21.5856 49.6044H22.1728ZM23.9173 45.071C23.6285 45.071 23.3911 44.9876 23.205 44.8207C23.0254 44.6475 22.9355 44.4357 22.9355 44.1855C22.9355 43.9288 23.0254 43.7171 23.205 43.5502C23.3911 43.377 23.6285 43.2904 23.9173 43.2904C24.1996 43.2904 24.4306 43.377 24.6103 43.5502C24.7964 43.7171 24.8894 43.9288 24.8894 44.1855C24.8894 44.4357 24.7964 44.6475 24.6103 44.8207C24.4306 44.9876 24.1996 45.071 23.9173 45.071ZM24.7354 45.6292V51H23.0895V45.6292H24.7354ZM28.6232 46.996H27.7377V51H26.0918V46.996H25.495V45.6292H26.0918V45.4752C26.0918 44.8143 26.2811 44.3138 26.6597 43.9737C27.0383 43.6272 27.5933 43.454 28.3248 43.454C28.4467 43.454 28.5365 43.4572 28.5943 43.4636V44.8592C28.2799 44.84 28.0585 44.8849 27.9302 44.994C27.8018 45.1031 27.7377 45.2988 27.7377 45.5811V45.6292H28.6232V46.996ZM34.8828 45.6292L31.5141 53.5506H29.7431L30.9751 50.8171L28.7902 45.6292H30.6286L31.8702 48.9884L33.1022 45.6292H34.8828Z" fill="white"/>
</svg>
