<svg width="34" height="34" viewBox="0 0 34 34" fill="none" xmlns="http://www.w3.org/2000/svg">
<circle cx="17" cy="17" r="16.6193" stroke="white" stroke-width="0.761467"/>
<path d="M22.6028 15.3197C21.3678 15.3197 20.1608 14.9267 19.1503 14.225V19.2212C19.1503 20.1755 18.8697 21.0737 18.3364 21.8316C17.8031 22.5894 17.0452 23.1789 16.1751 23.5157C15.305 23.8245 14.3506 23.8806 13.4524 23.656C12.5542 23.4315 11.7403 22.9263 11.1508 22.2245C10.5333 21.5228 10.1403 20.6527 10.0561 19.7264C9.94386 18.8002 10.1123 17.8739 10.5614 17.0599C11.0105 16.2459 11.6841 15.5723 12.5262 15.1513C13.3402 14.7302 14.2945 14.5899 15.1927 14.7022V17.2283C14.7717 17.1161 14.3226 17.1161 13.9015 17.2564C13.5086 17.3968 13.1437 17.6494 12.863 18.0143C12.6104 18.3792 12.47 18.8002 12.4981 19.2493C12.4981 19.6984 12.6384 20.1194 12.8911 20.4843C13.1437 20.8211 13.5086 21.1018 13.9296 21.2141C14.3506 21.3544 14.8278 21.3544 15.2208 21.2141C15.6418 21.0737 16.0067 20.8211 16.2874 20.4562C16.54 20.1194 16.6803 19.6703 16.6803 19.2212V9.42529H19.1503C19.1503 9.62177 19.1503 9.84632 19.2065 10.0428C19.2907 10.52 19.4591 10.941 19.7117 11.3339C19.9924 11.7269 20.3292 12.0637 20.7222 12.3163C21.2836 12.6812 21.9291 12.8777 22.6028 12.8777V15.3197Z" fill="white"/>
</svg>
