<svg width="34" height="37" viewBox="0 0 34 37" fill="none" xmlns="http://www.w3.org/2000/svg">
<circle opacity="0.3" cx="17" cy="17" r="16.6193" stroke="white" stroke-width="0.761467"/>
<path d="M25.764 13.4525C26.127 14.8714 26.127 17.8083 26.127 17.8083C26.127 17.8083 26.127 20.7782 25.764 22.1972C25.566 22.9562 24.939 23.5502 24.1801 23.7811C22.7611 24.1441 17.1183 24.1441 17.1183 24.1441C17.1183 24.1441 11.4755 24.1441 10.0895 23.7811C9.29757 23.5502 8.70359 22.9562 8.4726 22.1972C8.10961 20.7782 8.10961 17.8083 8.10961 17.8083C8.10961 17.8083 8.10961 14.8714 8.4726 13.4525C8.70359 12.6605 9.29757 12.0665 10.0895 11.8685C11.4755 11.4726 17.1183 11.4726 17.1183 11.4726C17.1183 11.4726 22.7611 11.4726 24.1471 11.8685C24.939 12.0665 25.566 12.6605 25.764 13.4525ZM15.2704 20.5143L19.9892 17.8083L15.2704 15.1354V20.5143Z" fill="white"/>
</svg>
