<svg width="35" height="35" viewBox="0 0 35 35" fill="none" xmlns="http://www.w3.org/2000/svg">
<mask id="path-1-outside-1_143_935" maskUnits="userSpaceOnUse" x="0" y="-0.356964" width="35" height="36" fill="black">
<rect fill="white" y="-0.356964" width="35" height="36"/>
<path d="M33.7349 17.3674C33.7349 25.743 27.4692 32.648 19.3494 33.607V22.3544H23.761L24.72 17.3674H19.3494V15.5773C19.3494 12.9559 20.3724 11.9329 23.0577 11.9329C23.8889 11.9329 24.5921 11.9329 24.9758 11.9969V7.45747C24.2085 7.26566 22.4183 7.07386 21.3954 7.07386C15.9609 7.07386 13.4035 9.63127 13.4035 15.1936V17.3674H10.0149V22.3544H13.4035V33.2874C6.30663 31.4972 1 25.0397 1 17.3674C1 8.35257 8.35256 1 17.3674 1C26.3823 1 33.7349 8.35257 33.7349 17.3674Z"/>
</mask>
<path d="M19.3494 33.607H18.3494V34.7321L19.4667 34.6001L19.3494 33.607ZM19.3494 22.3544V21.3544H18.3494V22.3544H19.3494ZM23.761 22.3544V23.3544H24.587L24.743 22.5433L23.761 22.3544ZM24.72 17.3674L25.702 17.5563L25.9306 16.3674H24.72V17.3674ZM19.3494 17.3674H18.3494V18.3674H19.3494V17.3674ZM24.9758 11.9969L24.8114 12.9833L25.9758 13.1773V11.9969H24.9758ZM24.9758 7.45747H25.9758V6.67669L25.2183 6.48733L24.9758 7.45747ZM13.4035 17.3674V18.3674H14.4035V17.3674H13.4035ZM10.0149 17.3674V16.3674H9.01488V17.3674H10.0149ZM10.0149 22.3544H9.01488V23.3544H10.0149V22.3544ZM13.4035 22.3544H14.4035V21.3544H13.4035V22.3544ZM13.4035 33.2873L13.1589 34.257L14.4035 34.5709V33.2873H13.4035ZM33.7349 17.3674H32.7349C32.7349 25.2327 26.8519 31.714 19.2321 32.6139L19.3494 33.607L19.4667 34.6001C28.0866 33.582 34.7349 26.2533 34.7349 17.3674H33.7349ZM19.3494 33.607H20.3494V22.3544H19.3494H18.3494V33.607H19.3494ZM19.3494 22.3544V23.3544H23.761V22.3544V21.3544H19.3494V22.3544ZM23.761 22.3544L24.743 22.5433L25.702 17.5563L24.72 17.3674L23.738 17.1786L22.779 22.1656L23.761 22.3544ZM24.72 17.3674V16.3674H19.3494V17.3674V18.3674H24.72V17.3674ZM19.3494 17.3674H20.3494V15.5773H19.3494H18.3494V17.3674H19.3494ZM19.3494 15.5773H20.3494C20.3494 14.359 20.5942 13.7845 20.8989 13.484C21.2072 13.1799 21.8022 12.9329 23.0577 12.9329V11.9329V10.9329C21.6279 10.9329 20.3688 11.1975 19.4943 12.0602C18.6161 12.9265 18.3494 14.1742 18.3494 15.5773H19.3494ZM23.0577 11.9329V12.9329C23.9389 12.9329 24.5318 12.9367 24.8114 12.9833L24.9758 11.9969L25.1402 11.0105C24.6525 10.9292 23.8388 10.9329 23.0577 10.9329V11.9329ZM24.9758 11.9969H25.9758V7.45747H24.9758H23.9758V11.9969H24.9758ZM24.9758 7.45747L25.2183 6.48733C24.3525 6.27089 22.4776 6.07386 21.3954 6.07386V7.07386V8.07386C22.3591 8.07386 24.0645 8.26044 24.7332 8.42761L24.9758 7.45747ZM21.3954 7.07386V6.07386C18.5393 6.07386 16.231 6.74501 14.6501 8.34503C13.0718 9.94252 12.4035 12.2793 12.4035 15.1936H13.4035H14.4035C14.4035 12.5456 15.0139 10.8225 16.0728 9.7507C17.1293 8.68141 18.8169 8.07386 21.3954 8.07386V7.07386ZM13.4035 15.1936H12.4035V17.3674H13.4035H14.4035V15.1936H13.4035ZM13.4035 17.3674V16.3674H10.0149V17.3674V18.3674H13.4035V17.3674ZM10.0149 17.3674H9.01488V22.3544H10.0149H11.0149V17.3674H10.0149ZM10.0149 22.3544V23.3544H13.4035V22.3544V21.3544H10.0149V22.3544ZM13.4035 22.3544H12.4035V33.2873H13.4035H14.4035V22.3544H13.4035ZM13.4035 33.2873L13.648 32.3177C6.9828 30.6364 2 24.5688 2 17.3674H1H0C0 25.5106 5.63047 32.3579 13.1589 34.257L13.4035 33.2873ZM1 17.3674H2C2 8.90485 8.90485 2 17.3674 2V1V4.76837e-07C7.80028 4.76837e-07 0 7.80028 0 17.3674H1ZM17.3674 1V2C25.83 2 32.7349 8.90485 32.7349 17.3674H33.7349H34.7349C34.7349 7.80028 26.9346 4.76837e-07 17.3674 4.76837e-07V1Z" fill="white" mask="url(#path-1-outside-1_143_935)"/>
</svg>
