<svg width="34" height="39" viewBox="0 0 34 39" fill="none" xmlns="http://www.w3.org/2000/svg">
<circle cx="17" cy="17" r="16.6193" stroke="white" stroke-width="0.761467"/>
<path d="M17.3997 13.0266C19.7996 13.0266 21.7121 14.9765 21.7121 17.3389C21.7121 19.7388 19.7621 21.6513 17.3997 21.6513C14.9998 21.6513 13.0874 19.7013 13.0874 17.3389C13.0874 14.939 15.0373 13.0266 17.3997 13.0266ZM17.3997 14.5265C15.8248 14.564 14.5873 15.8015 14.5873 17.3389C14.6248 18.9139 15.8623 20.1513 17.3997 20.1513C18.9747 20.1138 20.2121 18.8764 20.2121 17.3389C20.1746 15.764 18.9372 14.5265 17.3997 14.5265ZM20.8871 12.8391C20.8871 13.4015 21.3371 13.8515 21.8996 13.8515C22.462 13.8515 22.912 13.4015 22.912 12.8391C22.912 12.2766 22.462 11.8641 21.8996 11.8641C21.3371 11.8641 20.8871 12.2766 20.8871 12.8391ZM25.7619 13.889C25.8369 15.2765 25.8369 19.4013 25.7619 20.7888C25.6869 22.1388 25.3869 23.3387 24.412 24.3137C23.3995 25.3261 22.2371 25.6261 20.8871 25.6636C19.4996 25.7761 15.3373 25.7761 13.9498 25.6636C12.5999 25.6261 11.3999 25.2886 10.425 24.3137C9.44998 23.3387 9.1125 22.1388 9.075 20.7888C9 19.4013 9 15.239 9.075 13.8515C9.14999 12.5391 9.44998 11.3391 10.425 10.3642C11.3999 9.35168 12.5999 9.05169 13.9498 8.9767C15.3373 8.9017 19.4996 8.9017 20.8871 8.9767C22.2371 9.05169 23.3995 9.35168 24.412 10.3642C25.3869 11.3391 25.6869 12.5391 25.7619 13.889ZM23.962 22.2887C24.412 21.2013 24.2995 18.5764 24.2995 17.3389C24.2995 16.1015 24.412 13.4765 23.962 12.3891C23.662 11.6391 23.0995 11.0766 22.3496 10.7766C21.2621 10.3642 18.6372 10.4391 17.3997 10.4391C16.1998 10.4391 13.5748 10.3642 12.4499 10.7766C11.7374 11.0766 11.1374 11.6391 10.8749 12.3891C10.425 13.4765 10.5374 16.1015 10.5374 17.3389C10.5374 18.5764 10.425 21.2013 10.8749 22.2887C11.1749 23.0387 11.7374 23.6012 12.4499 23.9012C13.5748 24.3137 16.1998 24.2387 17.3997 24.2387C18.6372 24.2387 21.2621 24.3137 22.3496 23.9012C23.0995 23.6012 23.662 23.0387 23.962 22.2887Z" fill="white"/>
</svg>
