<svg width="91" height="32" viewBox="0 0 91 32" fill="none" xmlns="http://www.w3.org/2000/svg">
<path d="M26.8518 14.6966C26.8518 14.6966 26.8882 16.4768 25.4415 16.7346C24.2315 16.9499 23.2822 17.0409 22.8971 17.0591V5.32547C22.8971 5.32547 22.9122 3.96074 24.1102 2.76585C25.393 1.47997 26.8548 1.24342 26.8548 3.23895V14.6966H26.8518ZM28.9201 2.89019C28.8837 2.32913 28.5834 0 26.2543 0C24.9108 0 23.7523 0.752116 22.8941 1.55276V0H20.8166V31.3463H22.8941V19.0334C23.5643 19.0182 25.951 18.9212 27.1945 18.1691C28.5319 17.3654 28.8716 16.31 28.9201 14.9301V2.89019Z" fill="#009BE6"/>
<path d="M18.9364 0.0485229H16.862L16.8681 15.5094C16.8681 16.5739 15.9097 17.4412 14.7179 17.4412C13.526 17.4412 12.5646 16.5739 12.5646 15.5094L12.5555 0.0485229H10.4811L10.4902 15.5094C10.4902 17.2865 11.8459 18.7726 13.6807 19.1881V31.3493H15.7551V19.1881C17.5868 18.7726 18.9424 17.2865 18.9424 15.5094L18.9333 0.0485229H18.9364Z" fill="#009BE6"/>
<path d="M2.89322 0.0242615V2.14414H6.37479V27.9617C6.37479 28.8837 5.41342 29.6328 4.22459 29.6328C3.03576 29.6328 2.07439 28.8837 2.07439 27.9617V18.6482H0V27.9617C0 29.7753 1.89242 31.2401 4.22762 31.2401C6.56282 31.2401 8.41582 29.7996 8.45221 28.0103V0.0242615H2.89322Z" fill="#009BE6"/>
<path d="M87.0817 23.9222H88.4647V31.2735H89.6171V23.9222H91V22.9547H87.0817V23.9222ZM82.4113 31.2765H83.4243V24.1769H83.4485L84.8072 31.2765H86.4661V22.9547H85.3834V29.8693H85.3591L84.0005 22.9547H82.4113V31.2765ZM78.6599 31.2765H81.7957V30.3091H79.8123V27.4977H81.6804V26.5303H79.8123V23.9252H81.7957V22.9577H78.6599V31.2795V31.2765ZM72.0728 31.2765H73.0857V23.7857H73.11L74.4019 31.2765H75.5543L76.731 23.7857H76.7553V31.2765H77.838V22.9547H76.0517L74.9903 29.2931H74.966L73.9045 22.9547H72.0728V31.2765ZM67.1992 31.2765H68.2121V24.1769H68.2333L69.592 31.2765H71.2509V22.9547H70.1682V29.8693H70.147L68.7883 22.9547H67.1961V31.2765H67.1992ZM65.2582 31.2765H66.4107V22.9547H65.2582V31.2765ZM62.1922 24.1769H62.2164L62.9321 28.1862H61.4673L62.1922 24.1769ZM59.7629 31.2765H60.9154L61.2945 29.1566H63.0929L63.472 31.2765H64.6244L62.9291 22.9547H61.5917L59.7599 31.2765H59.7629ZM56.0842 23.9222H57.4672V31.2735H58.6196V23.9222H60.0025V22.9547H56.0842V23.9222ZM53.0151 23.9222H53.5671C54.2828 23.9222 54.3495 24.0374 54.3495 25.2717C54.3495 26.506 54.2221 26.688 53.3123 26.688H53.0121V23.9222H53.0151ZM51.8627 31.2765H53.0151V27.6585H53.4063C54.1676 27.6585 54.304 27.8647 54.304 28.6502V30.5274C54.304 30.861 54.3283 31.0703 54.4435 31.2765H55.5262C55.4565 30.9308 55.4565 30.5153 55.4565 30.2151V28.4045C55.4565 27.6221 55.1926 27.2187 54.4071 27.1368V27.1126C55.3533 26.8245 55.502 26.3392 55.502 25.2232C55.502 23.4036 55.3291 22.9517 53.6459 22.9517H51.8596V31.2735L51.8627 31.2765ZM48.1142 31.2765H51.2501V30.3091H49.2667V27.4977H51.1348V26.5303H49.2667V23.9252H51.2501V22.9577H48.1142V31.2795V31.2765ZM43.5803 23.9222H44.9632V31.2735H46.1157V23.9222H47.4986V22.9547H43.5803V23.9222ZM38.9099 31.2765H39.9228V24.1769H39.9471L41.3058 31.2765H42.9647V22.9547H41.882V29.8693H41.8577L40.499 22.9547H38.9099V31.2765ZM35.1615 31.2765H38.2973V30.3091H36.3139V27.4977H38.182V26.5303H36.3139V23.9252H38.2973V22.9577H35.1615V31.2795V31.2765Z" fill="white"/>
<path d="M64.9367 19.834H65.9496V12.7344H65.9739L67.3325 19.834H68.9914V11.5122H67.9087V18.4269H67.8845L66.5258 11.5122H64.9367V19.834ZM62.9957 19.834H64.1482V11.5122H62.9957V19.834ZM57.555 12.4827H58.107C58.8227 12.4827 58.8894 12.598 58.8894 13.8323C58.8894 15.0666 58.762 15.2486 57.8522 15.2486H57.552V12.4827H57.555ZM56.4026 19.834H57.555V16.216H57.9462C58.7074 16.216 58.8439 16.4222 58.8439 17.2077V19.085C58.8439 19.4186 58.8682 19.6278 58.9834 19.834H60.0661C59.9963 19.4883 59.9963 19.0728 59.9963 18.7726V16.962C59.9963 16.1796 59.7325 15.7763 58.947 15.6944V15.6701C59.8932 15.382 60.0418 14.8968 60.0418 13.7807C60.0418 11.9611 59.869 11.5092 58.1858 11.5092H56.3995V19.831L56.4026 19.834ZM52.6541 19.834H55.79V18.8666H53.8066V16.0553H55.6747V15.0878H53.8066V12.4827H55.79V11.5153H52.6541V19.8371V19.834ZM47.9989 19.834H49.6699C51.4895 19.834 51.8717 19.1668 51.8717 17.0348V14.5571C51.8717 12.137 51.7231 11.5153 49.8549 11.5153H47.9989V19.8371V19.834ZM49.1513 12.4827H49.6123C50.5919 12.4827 50.7192 12.8982 50.7192 14.1295V16.9863C50.7192 18.4147 50.5585 18.8636 49.7063 18.8636H49.1543V12.4797L49.1513 12.4827ZM44.9207 12.7344H44.9449L45.6606 16.7437H44.1958L44.9207 12.7344ZM42.4884 19.834H43.6408L44.0199 17.7142H45.8183L46.1974 19.834H47.3499L45.6546 11.5122H44.3172L42.4854 19.834H42.4884ZM38.8886 19.834H42.0244V18.8666H40.041V16.0553H41.9092V15.0878H40.041V12.4827H42.0244V11.5153H38.8886V19.8371V19.834ZM35.1613 19.834H38.2487V18.8666H36.3138V11.5153H35.1613V19.8371V19.834Z" fill="white"/>
</svg>
